<svg xmlns="http://www.w3.org/2000/svg" viewBox="0 0 400 100">
  <rect width="400" height="100" fill="#eb6016" />
  <!-- Keycap Y -->
  <g transform="translate(10, 10)">
    <rect width="70" height="80" rx="12" fill="#111" stroke="#444" stroke-width="2"/>
    <rect x="10" y="10" width="50" height="55" rx="6" fill="#242424" />
    <text x="35" y="45" font-family="system-ui, -apple-system, sans-serif" font-weight="900" font-size="32" fill="#ffffff" text-anchor="middle" dominant-baseline="middle">Y</text>
  </g>
  <!-- Keycap O -->
  <g transform="translate(86, 10)">
    <rect width="70" height="80" rx="12" fill="#111" stroke="#444" stroke-width="2"/>
    <rect x="10" y="10" width="50" height="55" rx="6" fill="#242424" />
    <text x="35" y="45" font-family="system-ui, -apple-system, sans-serif" font-weight="900" font-size="32" fill="#ffffff" text-anchor="middle" dominant-baseline="middle">O</text>
  </g>
  <!-- Keycap Z -->
  <g transform="translate(162, 10)">
    <rect width="70" height="80" rx="12" fill="#111" stroke="#444" stroke-width="2"/>
    <rect x="10" y="10" width="50" height="55" rx="6" fill="#242424" />
    <text x="35" y="45" font-family="system-ui, -apple-system, sans-serif" font-weight="900" font-size="32" fill="#ffffff" text-anchor="middle" dominant-baseline="middle">Z</text>
  </g>
  <!-- Keycap G -->
  <g transform="translate(238, 10)">
    <rect width="70" height="80" rx="12" fill="#111" stroke="#444" stroke-width="2"/>
    <rect x="10" y="10" width="50" height="55" rx="6" fill="#242424" />
    <text x="35" y="45" font-family="system-ui, -apple-system, sans-serif" font-weight="900" font-size="32" fill="#ffffff" text-anchor="middle" dominant-baseline="middle">G</text>
  </g>
  <!-- Keycap O -->
  <g transform="translate(314, 10)">
    <rect width="70" height="80" rx="12" fill="#111" stroke="#444" stroke-width="2"/>
    <rect x="10" y="10" width="50" height="55" rx="6" fill="#242424" />
    <text x="35" y="45" font-family="system-ui, -apple-system, sans-serif" font-weight="900" font-size="32" fill="#ffffff" text-anchor="middle" dominant-baseline="middle">O</text>
  </g>
</svg>
